<svg width="24" height="24" viewBox="0 0 24 24" fill="none" xmlns="http://www.w3.org/2000/svg">
<g id="&#231;&#174;&#173;&#229;&#164;&#180;&#230;&#160;&#183;&#229;&#188;&#143;/&#229;&#174;&#158;&#229;&#191;&#131;&#228;&#184;&#137;&#232;&#167;&#146;">
<path id="Union" fill-rule="evenodd" clip-rule="evenodd" d="M16.1271 12.3091C15.9576 12.1717 15.9576 11.8283 16.1271 11.6909L20.6188 8.04835C20.7882 7.91097 21 8.0827 21 8.35746V15.6425C21 15.9173 20.7882 16.089 20.6188 15.9516L16.1271 12.3091ZM13 13C13.5523 13 14 12.5523 14 12C14 11.4477 13.5523 11 13 11H10.75C10.1977 11 9.75 11.4477 9.75 12C9.75 12.5523 10.1977 13 10.75 13H13ZM6.25 13C6.80228 13 7.25 12.5523 7.25 12C7.25 11.4477 6.80228 11 6.25 11H4C3.44772 11 3 11.4477 3 12C3 12.5523 3.44772 13 4 13H6.25Z" fill="#2B2F36"/>
</g>
</svg>
